<?xml version="1.0" encoding="UTF-8" standalone="no"?>
<svg
   viewBox="0 0 72 72"
   role="img"
   aria-labelledby="title"
   version="1.1"
   id="svg20"
   xmlns="http://www.w3.org/2000/svg"
   xmlns:svg="http://www.w3.org/2000/svg">
  <title
     id="title">AG Refining silver element mark</title>
  <defs
     id="defs10">
    <linearGradient
       id="blue"
       x1="0"
       x2="1"
       y1="0"
       y2="1">
      <stop
         offset="0"
         stop-color="#0d5d94"
         id="stop3" />
      <stop
         offset=".52"
         stop-color="#0a4470"
         id="stop5" />
      <stop
         offset="1"
         stop-color="#061f36"
         id="stop7" />
    </linearGradient>
  </defs>
  <rect
     x="1"
     y="1"
     width="70"
     height="70"
     rx="1.5"
     fill="url(#blue)"
     stroke="#b8cfdd"
     id="rect12" />
  <g
     aria-label="47"
     id="text14"
     style="font-weight:700;font-size:8px;font-family:Arial, sans-serif;fill:#f7f4eb">
    <path
       d="m 13.945313,10.40625 -1.648438,2.441406 h 1.648438 z m -0.25,-1.2382812 h 1.671875 v 3.6796872 h 0.832031 V 13.9375 H 15.367188 V 15 h -1.421875 v -1.0625 h -2.585938 v -1.289062 z"
       id="path24" />
    <path
       d="m 17.101562,9.1679688 h 4.394532 V 10.015625 L 19.222656,15 h -1.464844 l 2.152344,-4.726562 h -2.808594 z"
       id="path26" />
  </g>
  <g
     aria-label="Ag"
     id="text16"
     style="font-size:31px;font-family:Georgia, serif;text-anchor:middle;fill:#f7f4eb">
    <path
       d="m 21.090332,36.811035 h 8.294922 L 25.237793,26.063965 Z M 14.702637,45 v -1.604492 h 1.98291 l 8.052734,-20.994629 h 2.542969 l 8.067871,20.994629 h 2.225098 V 45 H 29.35498 v -1.604492 h 2.512696 l -1.89209,-4.964844 h -9.505859 l -1.89209,4.964844 h 2.482422 V 45 Z"
       id="path29" />
    <path
       d="m 53.543457,30.529297 v 14.122558 q 0,3.466309 -1.907227,5.343262 -1.907226,1.89209 -5.434082,1.89209 -1.589355,0 -3.04248,-0.287598 -1.453125,-0.287597 -2.785156,-0.862793 v -3.375488 h 1.453125 q 0.272461,1.574219 1.286621,2.300781 1.01416,0.726563 2.90625,0.726563 2.452148,0 3.587402,-1.392578 1.150391,-1.377442 1.150391,-4.344239 v -2.16455 q -0.817383,1.513672 -2.088867,2.240234 -1.256348,0.711426 -3.118164,0.711426 -2.966797,0 -4.858887,-2.346192 -1.876953,-2.361328 -1.876953,-6.145507 0,-3.78418 1.876953,-6.130371 1.876953,-2.346192 4.858887,-2.346192 1.861816,0 3.118164,0.726563 1.271484,0.711425 2.088867,2.225097 v -2.512695 h 5.449219 v 1.619629 z m -2.785156,5.630859 q 0,-2.891113 -1.120117,-4.419922 -1.104981,-1.528808 -3.224122,-1.528808 -2.149414,0 -3.254394,1.695312 -1.089844,1.695313 -1.089844,5.040528 0,3.330078 1.089844,5.040527 1.10498,1.710449 3.254394,1.710449 2.119141,0 3.224122,-1.513672 1.120117,-1.528808 1.120117,-4.435058 z"
       id="path31" />
  </g>
  <g
     aria-label="107.868"
     id="text18"
     style="font-size:6.5px;font-family:Arial, sans-serif;letter-spacing:0.65;text-anchor:middle;fill:#cfdbe2">
    <path
       d="m 21.416577,59.460449 h 1.047364 v -3.61499 l -1.139405,0.228516 V 55.48999 l 1.133057,-0.228515 h 0.641113 v 4.198974 h 1.047363 V 60 h -2.729492 z"
       id="path34" />
    <path
       d="m 27.462085,55.683594 q -0.495117,0 -0.745849,0.488769 -0.247559,0.485596 -0.247559,1.463135 0,0.974365 0.247559,1.463135 0.250732,0.485596 0.745849,0.485596 0.498291,0 0.74585,-0.485596 0.250732,-0.48877 0.250732,-1.463135 0,-0.977539 -0.250732,-1.463135 -0.247559,-0.488769 -0.74585,-0.488769 z m 0,-0.507813 q 0.796631,0 1.215576,0.631592 0.422119,0.628418 0.422119,1.828125 0,1.196533 -0.422119,1.828125 -0.418945,0.628418 -1.215576,0.628418 -0.796631,0 -1.21875,-0.628418 -0.418945,-0.631592 -0.418945,-1.828125 0,-1.199707 0.418945,-1.828125 0.422119,-0.631592 1.21875,-0.631592 z"
       id="path36" />
    <path
       d="m 30.714624,55.261475 h 3.046875 v 0.272949 L 32.041284,60 h -0.669677 l 1.618652,-4.198975 h -2.275635 z"
       id="path38" />
    <path
       d="m 35.661987,59.193848 h 0.669678 V 60 h -0.669678 z"
       id="path40" />
    <path
       d="m 39.749244,57.749756 q -0.457032,0 -0.720459,0.244385 -0.260254,0.244384 -0.260254,0.672851 0,0.428467 0.260254,0.672852 0.263427,0.244385 0.720459,0.244385 0.457031,0 0.720459,-0.244385 0.263427,-0.247559 0.263427,-0.672852 0,-0.428467 -0.263427,-0.672851 -0.260254,-0.244385 -0.720459,-0.244385 z M 39.10813,57.476807 q -0.412597,-0.101563 -0.644287,-0.384034 -0.228515,-0.28247 -0.228515,-0.68872 0,-0.568116 0.403076,-0.898194 0.40625,-0.330078 1.11084,-0.330078 0.707763,0 1.110839,0.330078 0.403077,0.330078 0.403077,0.898194 0,0.40625 -0.23169,0.68872 -0.228515,0.282471 -0.637939,0.384034 0.463379,0.10791 0.720459,0.422119 0.260254,0.314209 0.260254,0.768066 0,0.688721 -0.42212,1.056885 -0.418945,0.368164 -1.20288,0.368164 -0.783936,0 -1.206055,-0.368164 -0.418945,-0.368164 -0.418945,-1.056885 0,-0.453857 0.260254,-0.768066 0.260253,-0.314209 0.723632,-0.422119 z m -0.234863,-1.012452 q 0,0.368165 0.228516,0.574463 0.231689,0.206299 0.647461,0.206299 0.412597,0 0.644287,-0.206299 0.234863,-0.206298 0.234863,-0.574463 0,-0.368164 -0.234863,-0.574462 -0.23169,-0.206299 -0.644287,-0.206299 -0.415772,0 -0.647461,0.206299 -0.228516,0.206298 -0.228516,0.574462 z"
       id="path42" />
    <path
       d="m 44.614087,57.375244 q -0.431641,0 -0.685547,0.295166 -0.250732,0.295166 -0.250732,0.809326 0,0.510987 0.250732,0.809326 0.253906,0.295167 0.685547,0.295167 0.431641,0 0.682373,-0.295167 0.253906,-0.298339 0.253906,-0.809326 0,-0.51416 -0.253906,-0.809326 -0.250732,-0.295166 -0.682373,-0.295166 z m 1.272705,-2.009033 v 0.583984 q -0.241211,-0.114258 -0.488769,-0.17456 -0.244385,-0.0603 -0.485596,-0.0603 -0.634766,0 -0.971192,0.428467 -0.333252,0.428467 -0.380859,1.294922 0.187256,-0.276123 0.469727,-0.422119 0.28247,-0.14917 0.62207,-0.14917 0.714111,0 1.126709,0.434814 0.415771,0.431641 0.415771,1.17749 0,0.729981 -0.43164,1.171143 -0.431641,0.441162 -1.148926,0.441162 -0.822021,0 -1.256836,-0.628418 -0.434814,-0.631592 -0.434814,-1.828125 0,-1.123535 0.533203,-1.790039 0.533203,-0.669678 1.431396,-0.669678 0.241211,0 0.485596,0.04761 0.247559,0.04761 0.51416,0.142822 z"
       id="path44" />
    <path
       d="m 49.320239,57.749756 q -0.457031,0 -0.720459,0.244385 -0.260254,0.244384 -0.260254,0.672851 0,0.428467 0.260254,0.672852 0.263428,0.244385 0.720459,0.244385 0.457031,0 0.720459,-0.244385 0.263428,-0.247559 0.263428,-0.672852 0,-0.428467 -0.263428,-0.672851 -0.260254,-0.244385 -0.720459,-0.244385 z m -0.641113,-0.272949 q -0.412598,-0.101563 -0.644287,-0.384034 -0.228516,-0.28247 -0.228516,-0.68872 0,-0.568116 0.403076,-0.898194 0.40625,-0.330078 1.11084,-0.330078 0.707764,0 1.11084,0.330078 0.403076,0.330078 0.403076,0.898194 0,0.40625 -0.231689,0.68872 -0.228516,0.282471 -0.63794,0.384034 0.463379,0.10791 0.720459,0.422119 0.260254,0.314209 0.260254,0.768066 0,0.688721 -0.422119,1.056885 -0.418946,0.368164 -1.202881,0.368164 -0.783936,0 -1.206055,-0.368164 -0.418945,-0.368164 -0.418945,-1.056885 0,-0.453857 0.260254,-0.768066 0.260254,-0.314209 0.723633,-0.422119 z m -0.234864,-1.012452 q 0,0.368165 0.228516,0.574463 0.231689,0.206299 0.647461,0.206299 0.412598,0 0.644287,-0.206299 0.234863,-0.206298 0.234863,-0.574463 0,-0.368164 -0.234863,-0.574462 -0.231689,-0.206299 -0.644287,-0.206299 -0.415772,0 -0.647461,0.206299 -0.228516,0.206298 -0.228516,0.574462 z"
       id="path46" />
  </g>
</svg>
